# xmcd CD database file
# Copyright (C) 1995-1998 Ti Kan
#
# Track frame offsets:
#	150
#	19727
#	34537
#	50618
#	66735
#	76126
#	92135
#	116331
#	132642
#	150943
#	180002
#	193556
#	209101
#	224364
#	238745
#	252752
#	267268
#	276059
#	286422
#	298250
#	306467
#
# Disc length: 4224 seconds
#
# Revision: 3
# Processed by: cddbd v1.4PL0 Copyright (c) Steve Scherf et al.
# Submitted via: CDex 1.40Beta3
#
DISCID=3d107e15
DTITLE=Various Artist - Country Classics
DYEAR=2000
DGENRE=Country
TTITLE0=Kenny Rogers - The gambler
TTITLE1=Glen Campbell - Rhinestone cowboy
TTITLE2=Johnny Lee - Lookin' for love
TTITLE3=Charlie Daniels Band - The devil went down to Georgia
TTITLE4=Hoe down gilley - Orange blossom special
TTITLE5=Kenny Rogers - The coward of the county
TTITLE6=Boz Scags - You don't love me
TTITLE7=Mickey Gilley - Stand by me
TTITLE8=Johnny Lee - Cherokee fiddle
TTITLE9=Eagles - Lying eyes
TTITLE10=Charlie Daniels Band - Falling in love for the night
TTITLE11=John Denver - Thank God I'm a country boy
TTITLE12=Juice Newton - Queen of hearts
TTITLE13=Eddie Rabbit - I love rainy nights
TTITLE14=Eddie Rabbit - 747
TTITLE15=Eddie Rabbit - Drivin' my life away
TTITLE16=Banjos Duel
TTITLE17=Cotton Eyed Joe
TTITLE18=Jalisco
TTITLE19=Al Dean - Sweet the artschottische
TTITLE20=Al Dean - Sing of times
EXTD=YEAR: 2000 ID3G:   2
EXTT0=
EXTT1=
EXTT2=
EXTT3=
EXTT4=
EXTT5=
EXTT6=
EXTT7=
EXTT8=
EXTT9=
EXTT10=
EXTT11=
EXTT12=
EXTT13=
EXTT14=
EXTT15=
EXTT16=
EXTT17=
EXTT18=
EXTT19=
EXTT20=
PLAYORDER=
